<svg width="2000px" height="1100px"
 viewBox="0.00 0.00 988.96 543.87" xmlns="http://www.w3.org/2000/svg" xmlns:xlink="http://www.w3.org/1999/xlink">
<g id="graph0" class="graph" transform="scale(1.0 1.0) rotate(0) translate(4 539.87)">
<title>ContextMapGraph</title>
<polygon fill="white" stroke="transparent" points="-4,4 -4,-539.87 984.96,-539.87 984.96,4 -4,4"/>
<!-- CatalogoProductosContext -->
<g id="node1" class="node">
<title>CatalogoProductosContext</title>
<polygon fill="none" stroke="black" stroke-width="2" points="34.59,-507.86 28.77,-505.37 23.42,-502.83 18.58,-500.27 14.27,-497.68 10.49,-495.08 7.29,-492.47 4.66,-489.88 2.62,-487.3 1.18,-484.74 0.36,-482.22 0.15,-479.75 0.56,-477.32 1.6,-474.96 3.25,-472.65 5.53,-470.42 8.4,-468.27 11.88,-466.2 15.94,-464.21 20.58,-462.32 25.77,-460.51 31.49,-458.81 37.72,-457.21 44.44,-455.71 51.63,-454.31 59.24,-453.01 67.27,-451.82 75.66,-450.74 84.4,-449.76 93.45,-448.88 102.77,-448.11 112.33,-447.44 122.1,-446.87 132.03,-446.4 142.1,-446.02 152.27,-445.74 162.5,-445.56 172.75,-445.46 183,-445.46 193.21,-445.54 203.34,-445.71 213.37,-445.97 223.27,-446.3 233,-446.72 242.53,-447.21 251.85,-447.78 260.93,-448.43 269.74,-449.16 278.27,-449.96 286.48,-450.83 294.38,-451.78 301.93,-452.8 309.13,-453.89 315.96,-455.05 322.41,-456.28 328.47,-457.58 334.14,-458.95 339.4,-460.39 344.26,-461.9 348.7,-463.48 352.72,-465.12 356.33,-466.83 359.52,-468.6 362.29,-470.43 364.65,-472.33 366.59,-474.28 368.11,-476.28 369.23,-478.34 369.93,-480.45 370.24,-482.6 370.14,-484.79 369.65,-487.02 368.76,-489.28 367.49,-491.56 365.84,-493.86 363.8,-496.18 361.39,-498.5 358.62,-500.82 355.47,-503.13 351.97,-505.43 348.12,-507.7 343.91,-509.94 339.36,-512.15 334.47,-514.3 329.25,-516.39 323.7,-518.42 317.83,-520.37 311.65,-522.25 305.17,-524.02 298.38,-525.7 291.31,-527.28 283.97,-528.73 276.36,-530.07 268.49,-531.28 260.38,-532.35 252.05,-533.28 243.5,-534.06 234.76,-534.69 225.85,-535.17 216.77,-535.49 207.56,-535.64 198.23,-535.64 188.81,-535.47 179.31,-535.14 169.78,-534.64 160.22,-533.99 150.67,-533.17 141.16,-532.2 131.71,-531.07 122.36,-529.8 113.14,-528.38 104.07,-526.82 95.19,-525.13 86.53,-523.32 78.11,-521.39 69.98,-519.36 62.16,-517.22 54.68,-514.99 47.57,-512.69 40.87,-510.31 34.59,-507.86"/>
<text text-anchor="middle" x="195.35" y="-483.29" font-family="sans-serif" font-size="16.00">CatalogoProductosContext</text>
</g>
<!-- GestionOrdenesContext -->
<g id="node2" class="node">
<title>GestionOrdenesContext</title>
<polygon fill="none" stroke="black" stroke-width="2" points="357.81,-329.69 360.68,-332.47 363.09,-335.27 365.02,-338.06 366.46,-340.85 367.41,-343.62 367.85,-346.35 367.79,-349.04 367.21,-351.69 366.12,-354.27 364.52,-356.78 362.4,-359.22 359.79,-361.57 356.67,-363.82 353.06,-365.98 348.96,-368.03 344.4,-369.97 339.38,-371.8 333.92,-373.5 328.03,-375.08 321.74,-376.54 315.07,-377.88 308.03,-379.08 300.65,-380.16 292.95,-381.11 284.97,-381.93 276.72,-382.62 268.23,-383.19 259.54,-383.64 250.67,-383.97 241.65,-384.18 232.51,-384.28 223.28,-384.27 213.99,-384.15 204.68,-383.93 195.36,-383.61 186.08,-383.19 176.86,-382.69 167.73,-382.09 158.71,-381.41 149.84,-380.66 141.14,-379.82 132.64,-378.92 124.36,-377.94 116.33,-376.9 108.56,-375.8 101.07,-374.63 93.9,-373.41 87.05,-372.13 80.54,-370.79 74.38,-369.4 68.6,-367.97 63.2,-366.48 58.19,-364.94 53.59,-363.36 49.4,-361.73 45.62,-360.06 42.27,-358.34 39.35,-356.58 36.85,-354.78 34.79,-352.94 33.16,-351.06 31.96,-349.14 31.2,-347.18 30.86,-345.19 30.94,-343.17 31.44,-341.12 32.36,-339.04 33.68,-336.93 35.41,-334.81 37.53,-332.67 40.03,-330.52 42.91,-328.36 46.17,-326.2 49.78,-324.05 53.74,-321.9 58.03,-319.77 62.66,-317.66 67.6,-315.58 72.85,-313.54 78.4,-311.54 84.22,-309.59 90.32,-307.7 96.67,-305.88 103.26,-304.14 110.09,-302.48 117.13,-300.91 124.37,-299.44 131.8,-298.07 139.4,-296.83 147.15,-295.7 155.05,-294.7 163.07,-293.84 171.19,-293.12 179.4,-292.55 187.69,-292.12 196.03,-291.86 204.4,-291.75 212.78,-291.8 221.16,-292.02 229.51,-292.4 237.82,-292.95 246.06,-293.67 254.21,-294.55 262.24,-295.59 270.14,-296.79 277.89,-298.15 285.46,-299.66 292.83,-301.31 299.97,-303.1 306.88,-305.03 313.51,-307.08 319.86,-309.25 325.89,-311.53 331.6,-313.91 336.95,-316.38 341.93,-318.93 346.53,-321.54 350.72,-324.22 354.48,-326.94 357.81,-329.69"/>
<text text-anchor="middle" x="195.35" y="-336.83" font-family="sans-serif" font-size="16.00">GestionOrdenesContext</text>
</g>
<!-- CatalogoProductosContext&#45;&gt;GestionOrdenesContext -->
<g id="edge1" class="edge">
<title>CatalogoProductosContext&#45;&gt;GestionOrdenesContext</title>
<path fill="none" stroke="black" stroke-width="2" d="M195.35,-445.47C195.35,-426.19 195.35,-403.17 195.35,-383.71"/>
<text text-anchor="middle" x="270.85" y="-410.72" font-family="sans-serif" font-size="12.00"> &#160;&#160;&#160;&#160;&#160;&#160;&#160;&#160;&#160;&#160;&#160;&#160;&#160;&#160;&#160;&#160;&#160;&#160;&#160;&#160;&#160;&#160;&#160;&#160;&#160;&#160;&#160;&#160;&#160;&#160;&#160;&#160;&#160;&#160;&#160;&#160;&#160;&#160;&#160;</text>
<polygon fill="white" stroke="transparent" points="188.35,-374.71 188.35,-391.71 202.35,-391.71 202.35,-374.71 188.35,-374.71"/>
<text text-anchor="start" x="190.35" y="-380.11" font-family="sans-serif" font-size="12.00">D</text>
<polygon fill="white" stroke="transparent" points="171.35,-435.47 171.35,-454.47 187.35,-454.47 187.35,-435.47 171.35,-435.47"/>
<polyline fill="none" stroke="black" points="187.35,-435.47 187.35,-454.47 "/>
<text text-anchor="start" x="174.35" y="-441.87" font-family="sans-serif" font-size="12.00">U</text>
<polygon fill="white" stroke="transparent" points="187.35,-435.47 187.35,-454.47 220.35,-454.47 220.35,-435.47 187.35,-435.47"/>
<polygon fill="none" stroke="black" points="187.35,-435.47 187.35,-454.47 220.35,-454.47 220.35,-435.47 187.35,-435.47"/>
<text text-anchor="start" x="190.35" y="-441.87" font-family="sans-serif" font-size="12.00">OHS</text>
</g>
<!-- GestionClientesContext -->
<g id="node3" class="node">
<title>GestionClientesContext</title>
<polygon fill="none" stroke="black" stroke-width="2" points="730.85,-228.36 722.69,-230.26 714.28,-232.05 705.66,-233.73 696.86,-235.29 687.91,-236.73 678.85,-238.04 669.71,-239.2 660.52,-240.22 651.31,-241.1 642.11,-241.82 632.96,-242.39 623.88,-242.8 614.89,-243.05 606.03,-243.14 597.31,-243.08 588.77,-242.85 580.42,-242.46 572.28,-241.92 564.37,-241.22 556.7,-240.37 549.29,-239.38 542.16,-238.24 535.32,-236.97 528.77,-235.57 522.52,-234.04 516.59,-232.39 510.98,-230.64 505.69,-228.78 500.72,-226.82 496.09,-224.78 491.79,-222.67 487.83,-220.48 484.2,-218.23 480.91,-215.93 477.95,-213.59 475.33,-211.21 473.04,-208.81 471.09,-206.39 469.47,-203.96 468.18,-201.53 467.23,-199.1 466.6,-196.7 466.31,-194.31 466.35,-191.95 466.71,-189.63 467.41,-187.35 468.44,-185.12 469.79,-182.94 471.48,-180.81 473.51,-178.75 475.86,-176.75 478.55,-174.82 481.57,-172.96 484.92,-171.18 488.61,-169.48 492.64,-167.85 496.99,-166.3 501.68,-164.84 506.69,-163.46 512.03,-162.17 517.69,-160.96 523.66,-159.83 529.95,-158.79 536.53,-157.84 543.41,-156.97 550.57,-156.19 558,-155.49 565.69,-154.88 573.62,-154.36 581.78,-153.93 590.14,-153.57 598.69,-153.31 607.41,-153.13 616.28,-153.04 625.26,-153.03 634.33,-153.12 643.48,-153.29 652.66,-153.54 661.85,-153.89 671.02,-154.32 680.13,-154.85 689.16,-155.46 698.08,-156.16 706.84,-156.96 715.42,-157.84 723.79,-158.82 731.9,-159.89 739.74,-161.05 747.25,-162.3 754.43,-163.64 761.23,-165.07 767.62,-166.58 773.59,-168.19 779.1,-169.88 784.12,-171.65 788.64,-173.51 792.64,-175.44 796.1,-177.45 798.99,-179.52 801.32,-181.67 803.07,-183.87 804.22,-186.13 804.78,-188.45 804.75,-190.8 804.12,-193.2 802.89,-195.62 801.07,-198.08 798.67,-200.54 795.7,-203.02 792.18,-205.5 788.11,-207.97 783.53,-210.42 778.44,-212.84 772.87,-215.24 766.84,-217.58 760.39,-219.88 753.53,-222.11 746.3,-224.28 738.73,-226.36 730.85,-228.36"/>
<text text-anchor="middle" x="623.35" y="-190.94" font-family="sans-serif" font-size="16.00">GestionClientesContext</text>
</g>
<!-- GestionOrdenesContext&#45;&gt;GestionClientesContext -->
<g id="edge2" class="edge">
<title>GestionOrdenesContext&#45;&gt;GestionClientesContext</title>
<path fill="none" stroke="black" stroke-width="2" d="M302.25,-303.69C367.24,-281.84 450,-254.02 515.21,-232.09"/>
<text text-anchor="middle" x="456.85" y="-264.34" font-family="sans-serif" font-size="12.00">Partnership</text>
</g>
<!-- GestionPagosContext -->
<g id="node5" class="node">
<title>GestionPagosContext</title>
<polygon fill="none" stroke="black" stroke-width="2" points="152.27,-152.64 161.82,-151.79 171.43,-151.06 181.06,-150.46 190.67,-149.99 200.22,-149.64 209.69,-149.43 219.03,-149.36 228.21,-149.41 237.19,-149.61 245.95,-149.94 254.46,-150.41 262.68,-151.01 270.6,-151.75 278.19,-152.62 285.43,-153.62 292.3,-154.74 298.79,-155.99 304.87,-157.36 310.55,-158.84 315.81,-160.44 320.64,-162.14 325.04,-163.94 329.01,-165.83 332.54,-167.81 335.64,-169.87 338.31,-172 340.56,-174.2 342.39,-176.46 343.82,-178.77 344.84,-181.12 345.47,-183.5 345.72,-185.92 345.61,-188.35 345.13,-190.79 344.32,-193.24 343.17,-195.68 341.71,-198.11 339.94,-200.52 337.88,-202.9 335.54,-205.24 332.92,-207.55 330.05,-209.8 326.94,-212 323.58,-214.14 320,-216.21 316.2,-218.21 312.18,-220.12 307.96,-221.96 303.55,-223.71 298.94,-225.37 294.14,-226.93 289.15,-228.39 283.99,-229.75 278.65,-231.01 273.14,-232.17 267.46,-233.21 261.62,-234.15 255.61,-234.97 249.45,-235.69 243.13,-236.29 236.65,-236.78 230.04,-237.16 223.28,-237.43 216.4,-237.59 209.38,-237.64 202.25,-237.58 195.02,-237.41 187.69,-237.14 180.28,-236.76 172.79,-236.28 165.26,-235.7 157.69,-235.02 150.1,-234.24 142.51,-233.37 134.94,-232.41 127.42,-231.36 119.96,-230.23 112.59,-229.01 105.35,-227.71 98.24,-226.33 91.31,-224.87 84.57,-223.34 78.06,-221.74 71.8,-220.08 65.83,-218.35 60.16,-216.57 54.84,-214.73 49.88,-212.83 45.31,-210.89 41.16,-208.9 37.45,-206.87 34.21,-204.8 31.46,-202.7 29.2,-200.57 27.48,-198.42 26.28,-196.25 25.64,-194.07 25.56,-191.87 26.05,-189.67 27.12,-187.48 28.76,-185.29 30.97,-183.11 33.76,-180.95 37.12,-178.81 41.03,-176.7 45.48,-174.63 50.47,-172.6 55.97,-170.61 61.96,-168.68 68.42,-166.81 75.32,-165 82.64,-163.27 90.35,-161.61 98.41,-160.04 106.79,-158.55 115.46,-157.16 124.38,-155.87 133.52,-154.68 142.83,-153.6 152.27,-152.64"/>
<text text-anchor="middle" x="195.35" y="-190.94" font-family="sans-serif" font-size="16.00">GestionPagosContext</text>
</g>
<!-- GestionOrdenesContext&#45;&gt;GestionPagosContext -->
<g id="edge3" class="edge">
<title>GestionOrdenesContext&#45;&gt;GestionPagosContext</title>
<path fill="none" stroke="black" stroke-width="2" d="M195.35,-291.71C195.35,-274.22 195.35,-254.58 195.35,-237.65"/>
<text text-anchor="middle" x="229.85" y="-264.34" font-family="sans-serif" font-size="12.00">Partnership</text>
</g>
<!-- GestionEnviosContext -->
<g id="node4" class="node">
<title>GestionEnviosContext</title>
<polygon fill="none" stroke="black" stroke-width="2" points="774.48,-36.45 777.53,-39.18 780.13,-41.93 782.29,-44.68 784,-47.43 785.23,-50.16 785.98,-52.86 786.26,-55.53 786.05,-58.16 785.35,-60.73 784.15,-63.23 782.48,-65.66 780.31,-68.01 777.66,-70.28 774.54,-72.45 770.96,-74.51 766.92,-76.48 762.43,-78.33 757.52,-80.07 752.19,-81.69 746.47,-83.2 740.37,-84.58 733.91,-85.84 727.12,-86.97 720.01,-87.98 712.62,-88.87 704.96,-89.63 697.07,-90.27 688.96,-90.8 680.68,-91.2 672.24,-91.5 663.67,-91.68 655.01,-91.75 646.27,-91.72 637.5,-91.58 628.72,-91.35 619.95,-91.02 611.24,-90.6 602.59,-90.1 594.04,-89.51 585.62,-88.84 577.35,-88.09 569.26,-87.27 561.37,-86.38 553.69,-85.42 546.26,-84.4 539.09,-83.31 532.2,-82.16 525.61,-80.96 519.34,-79.69 513.39,-78.37 507.78,-77 502.53,-75.58 497.63,-74.1 493.12,-72.58 488.98,-71 485.23,-69.38 481.87,-67.71 478.9,-65.99 476.34,-64.23 474.17,-62.42 472.41,-60.57 471.04,-58.68 470.08,-56.75 469.51,-54.78 469.34,-52.78 469.55,-50.74 470.15,-48.67 471.14,-46.58 472.49,-44.46 474.21,-42.32 476.3,-40.16 478.73,-38 481.52,-35.83 484.64,-33.66 488.09,-31.5 491.86,-29.35 495.94,-27.22 500.32,-25.11 504.99,-23.04 509.94,-21.01 515.17,-19.03 520.66,-17.1 526.39,-15.24 532.36,-13.45 538.56,-11.74 544.97,-10.12 551.59,-8.6 558.39,-7.18 565.37,-5.88 572.51,-4.69 579.79,-3.63 587.21,-2.71 594.75,-1.92 602.39,-1.27 610.11,-0.78 617.91,-0.44 625.75,-0.26 633.63,-0.23 641.52,-0.37 649.41,-0.68 657.27,-1.15 665.09,-1.78 672.85,-2.58 680.53,-3.54 688.09,-4.65 695.53,-5.93 702.83,-7.35 709.95,-8.92 716.88,-10.64 723.6,-12.48 730.08,-14.46 736.31,-16.55 742.26,-18.75 747.91,-21.06 753.24,-23.45 758.24,-25.93 762.88,-28.48 767.14,-31.09 771.02,-33.75 774.48,-36.45"/>
<text text-anchor="middle" x="623.35" y="-44.97" font-family="sans-serif" font-size="16.00">GestionEnviosContext</text>
</g>
<!-- GestionClientesContext&#45;&gt;GestionEnviosContext -->
<g id="edge4" class="edge">
<title>GestionClientesContext&#45;&gt;GestionEnviosContext</title>
<path fill="none" stroke="black" stroke-width="2" d="M623.35,-152.86C623.35,-133.58 623.35,-110.6 623.35,-91.24"/>
<text text-anchor="middle" x="657.85" y="-118.93" font-family="sans-serif" font-size="12.00">Partnership</text>
</g>
<!-- GestionAutorizacionAutenticacionContext -->
<g id="node6" class="node">
<title>GestionAutorizacionAutenticacionContext</title>
<polygon fill="none" stroke="black" stroke-width="2" points="486.97,-370.94 474.67,-368.87 462.99,-366.73 451.97,-364.53 441.67,-362.28 432.12,-359.98 423.38,-357.64 415.47,-355.27 408.44,-352.88 402.31,-350.48 397.1,-348.08 392.85,-345.68 389.57,-343.29 387.26,-340.91 385.94,-338.56 385.62,-336.25 386.29,-333.97 387.94,-331.73 390.57,-329.54 394.16,-327.4 398.69,-325.32 404.14,-323.3 410.47,-321.35 417.67,-319.46 425.7,-317.65 434.51,-315.91 444.06,-314.25 454.32,-312.66 465.23,-311.16 476.75,-309.74 488.83,-308.41 501.41,-307.15 514.45,-305.99 527.88,-304.9 541.66,-303.91 555.73,-303 570.04,-302.18 584.54,-301.45 599.17,-300.8 613.88,-300.24 628.62,-299.78 643.35,-299.39 658.01,-299.1 672.57,-298.9 686.98,-298.79 701.21,-298.76 715.21,-298.83 728.95,-298.98 742.4,-299.23 755.53,-299.57 768.32,-300 780.73,-300.52 792.76,-301.13 804.37,-301.83 815.55,-302.63 826.29,-303.52 836.57,-304.51 846.39,-305.58 855.73,-306.75 864.6,-308.01 872.97,-309.36 880.85,-310.8 888.24,-312.33 895.13,-313.94 901.52,-315.64 907.41,-317.42 912.79,-319.28 917.67,-321.22 922.05,-323.23 925.92,-325.31 929.29,-327.45 932.14,-329.65 934.49,-331.91 936.32,-334.22 937.64,-336.57 938.43,-338.95 938.71,-341.37 938.45,-343.8 937.66,-346.26 936.33,-348.71 934.46,-351.17 932.03,-353.62 929.05,-356.05 925.51,-358.46 921.4,-360.82 916.72,-363.15 911.46,-365.42 905.63,-367.63 899.21,-369.77 892.21,-371.84 884.63,-373.81 876.46,-375.69 867.73,-377.47 858.42,-379.14 848.56,-380.69 838.14,-382.12 827.19,-383.42 815.72,-384.58 803.75,-385.6 791.3,-386.48 778.39,-387.21 765.06,-387.79 751.34,-388.22 737.25,-388.49 722.84,-388.6 708.14,-388.56 693.2,-388.36 678.06,-388 662.77,-387.5 647.38,-386.84 631.94,-386.03 616.5,-385.08 601.12,-383.99 585.85,-382.77 570.75,-381.41 555.89,-379.93 541.3,-378.34 527.06,-376.64 513.23,-374.83 499.84,-372.93 486.97,-370.94"/>
<text text-anchor="middle" x="683.35" y="-336.83" font-family="sans-serif" font-size="16.00">GestionAutorizacionAutenticacionContext</text>
</g>
<!-- GestionAutorizacionAutenticacionContext&#45;&gt;GestionClientesContext -->
<g id="edge5" class="edge">
<title>GestionAutorizacionAutenticacionContext&#45;&gt;GestionClientesContext</title>
<path fill="none" stroke="black" stroke-width="2" d="M666.32,-298.78C658.94,-281.08 650.26,-260.28 642.65,-242.01"/>
<text text-anchor="middle" x="729.85" y="-264.34" font-family="sans-serif" font-size="12.00"> &#160;&#160;&#160;&#160;&#160;&#160;&#160;&#160;&#160;&#160;&#160;&#160;&#160;&#160;&#160;&#160;&#160;&#160;&#160;&#160;&#160;&#160;&#160;&#160;&#160;&#160;&#160;&#160;&#160;&#160;&#160;&#160;&#160;&#160;&#160;&#160;&#160;&#160;&#160;</text>
<polygon fill="white" stroke="transparent" points="623.65,-232.01 623.65,-251.01 639.65,-251.01 639.65,-232.01 623.65,-232.01"/>
<polyline fill="none" stroke="black" points="639.65,-232.01 639.65,-251.01 "/>
<text text-anchor="start" x="626.65" y="-238.41" font-family="sans-serif" font-size="12.00">D</text>
<polygon fill="white" stroke="transparent" points="639.65,-232.01 639.65,-251.01 661.65,-251.01 661.65,-232.01 639.65,-232.01"/>
<polygon fill="none" stroke="black" points="639.65,-232.01 639.65,-251.01 661.65,-251.01 661.65,-232.01 639.65,-232.01"/>
<text text-anchor="start" x="642.65" y="-238.41" font-family="sans-serif" font-size="12.00">CF</text>
<polygon fill="white" stroke="transparent" points="648.32,-288.78 648.32,-307.78 664.32,-307.78 664.32,-288.78 648.32,-288.78"/>
<polyline fill="none" stroke="black" points="664.32,-288.78 664.32,-307.78 "/>
<text text-anchor="start" x="651.32" y="-295.18" font-family="sans-serif" font-size="12.00">U</text>
<polygon fill="white" stroke="transparent" points="664.32,-288.78 664.32,-307.78 685.32,-307.78 685.32,-288.78 664.32,-288.78"/>
<polygon fill="none" stroke="black" points="664.32,-288.78 664.32,-307.78 685.32,-307.78 685.32,-288.78 664.32,-288.78"/>
<text text-anchor="start" x="667.32" y="-295.18" font-family="sans-serif" font-size="12.00">PL</text>
</g>
</g>
</svg>
